<?xml version="1.0" encoding="UTF-8" standalone="no"?>
<svg
   xmlns:dc="http://purl.org/dc/elements/1.1/"
   xmlns:cc="http://creativecommons.org/ns#"
   xmlns:rdf="http://www.w3.org/1999/02/22-rdf-syntax-ns#"
   xmlns:svg="http://www.w3.org/2000/svg"
   xmlns="http://www.w3.org/2000/svg"
   xmlns:sodipodi="http://sodipodi.sourceforge.net/DTD/sodipodi-0.dtd"
   xmlns:inkscape="http://www.inkscape.org/namespaces/inkscape"
   width="400mm"
   height="200mm"
   viewBox="0 0 400 200"
   version="1.1"
   id="svg1220"
   inkscape:version="1.0 (4035a4fb49, 2020-05-01)"
   sodipodi:docname="LOGO contrast.svg">
  <defs
     id="defs1214" />
  <sodipodi:namedview
     id="base"
     pagecolor="#ffffff"
     bordercolor="#666666"
     borderopacity="1.0"
     inkscape:pageopacity="0.0"
     inkscape:pageshadow="2"
     inkscape:zoom="0.49497475"
     inkscape:cx="719.51994"
     inkscape:cy="407.30739"
     inkscape:document-units="mm"
     inkscape:current-layer="layer1"
     inkscape:document-rotation="0"
     showgrid="false"
     inkscape:window-width="1274"
     inkscape:window-height="728"
     inkscape:window-x="76"
     inkscape:window-y="0"
     inkscape:window-maximized="0" />
  <metadata
     id="metadata1217">
    <rdf:RDF>
      <cc:Work
         rdf:about="">
        <dc:format>image/svg+xml</dc:format>
        <dc:type
           rdf:resource="http://purl.org/dc/dcmitype/StillImage" />
        <dc:title></dc:title>
      </cc:Work>
    </rdf:RDF>
  </metadata>
  <g
     inkscape:label="Layer 1"
     inkscape:groupmode="layer"
     id="layer1">
    <g
       aria-label="MALBIZER"
       id="text1982"
       style="font-size:13.0583px;line-height:1.25;font-family:Constance;-inkscape-font-specification:Constance;letter-spacing:5.19723px;stroke-width:0.326458;fill:#cecece;fill-opacity:1;stroke:none;stroke-opacity:1">
      <path
         d="m 102.61391,130.77275 -9.670482,-22.35901 -3.9107,21.14754 H 85.41958 l 6.312381,-32.348299 10.881949,25.738359 10.88195,-25.738359 6.31238,32.348299 h -3.61314 l -3.95321,-21.14754 z"
         style="font-style:normal;font-variant:normal;font-weight:normal;font-stretch:normal;font-size:43.5278px;font-family:'Futura Bk BT';-inkscape-font-specification:'Futura Bk BT';stroke-width:0.326458;fill:#cecece;fill-opacity:1;stroke:none;stroke-opacity:1"
         id="path1984" />
      <path
         d="m 139.6281,105.3957 -4.95214,11.4558 h 9.90427 z m 0,-8.182719 14.15503,32.348299 h -4.01697 l -4.03822,-9.54296 h -12.15718 l -4.03822,9.54296 h -4.01697 z"
         style="font-style:normal;font-variant:normal;font-weight:normal;font-stretch:normal;font-size:43.5278px;font-family:'Futura Bk BT';-inkscape-font-specification:'Futura Bk BT';stroke-width:0.326458;fill:#cecece;fill-opacity:1;stroke:none;stroke-opacity:1"
         id="path1986" />
      <path
         d="M 162.18969,129.56128 V 98.445702 h 3.69816 v 27.587448 h 11.75336 v 3.52813 z"
         style="font-style:normal;font-variant:normal;font-weight:normal;font-stretch:normal;font-size:43.5278px;font-family:'Futura Bk BT';-inkscape-font-specification:'Futura Bk BT';stroke-width:0.326458;fill:#cecece;fill-opacity:1;stroke:none;stroke-opacity:1"
         id="path1988" />
      <path
         d="M 187.28048,129.56128 V 98.445702 h 6.48241 q 3.42187,0 5.03716,0.361315 1.63654,0.340061 2.8055,1.190214 1.48776,1.105199 2.29541,2.848009 0.8289,1.72156 0.8289,3.78318 0,2.46544 -1.19022,4.12324 -1.16895,1.6578 -3.42186,2.31666 2.763,0.42508 4.35703,2.4867 1.61529,2.04036 1.61529,5.16467 0,1.87034 -0.68012,3.57064 -0.68012,1.70031 -1.89159,2.91178 -1.31774,1.29648 -3.25183,1.82782 -1.9341,0.53135 -6.50367,0.53135 z m 3.61315,-14.58011 v 11.34953 h 2.86926 q 2.95428,0 4.25076,-0.23379 1.31774,-0.23379 2.10413,-0.80765 0.95642,-0.68012 1.50902,-1.89159 0.5526,-1.21146 0.5526,-2.67798 0,-1.7003 -0.65887,-2.95427 -0.65887,-1.25398 -1.91284,-1.95536 -0.74388,-0.44633 -1.72156,-0.63761 -0.97767,-0.19128 -3.03929,-0.19128 h -1.08395 z m 0,-13.32614 v 10.41436 h 2.86926 q 3.95321,0 5.5685,-1.1477 1.61529,-1.14771 1.61529,-3.86819 0,-2.99679 -1.50902,-4.18701 -1.48777,-1.21146 -5.67477,-1.21146 z"
         style="font-style:normal;font-variant:normal;font-weight:normal;font-stretch:normal;font-size:43.5278px;font-family:'Futura Bk BT';-inkscape-font-specification:'Futura Bk BT';stroke-width:0.326458;fill:#cecece;fill-opacity:1;stroke:none;stroke-opacity:1"
         id="path1990" />
      <path
         d="M 217.00461,129.56128 V 98.445702 h 3.69817 v 31.115578 z"
         style="font-style:normal;font-variant:normal;font-weight:normal;font-stretch:normal;font-size:43.5278px;font-family:'Futura Bk BT';-inkscape-font-specification:'Futura Bk BT';stroke-width:0.326458;fill:#cecece;fill-opacity:1;stroke:none;stroke-opacity:1"
         id="path1992" />
      <path
         d="m 229.51315,129.56128 17.49189,-27.73622 H 232.8075 v -3.379358 h 20.46741 l -17.32185,27.587448 h 16.62048 v 3.52813 z"
         style="font-style:normal;font-variant:normal;font-weight:normal;font-stretch:normal;font-size:43.5278px;font-family:'Futura Bk BT';-inkscape-font-specification:'Futura Bk BT';stroke-width:0.326458;fill:#cecece;fill-opacity:1;stroke:none;stroke-opacity:1"
         id="path1994" />
      <path
         d="M 263.318,129.56128 V 98.445702 h 16.40794 v 3.379358 h -12.70978 v 8.9266 h 12.70978 v 3.44312 h -12.70978 v 11.92338 h 12.70978 v 3.44312 z"
         style="font-style:normal;font-variant:normal;font-weight:normal;font-stretch:normal;font-size:43.5278px;font-family:'Futura Bk BT';-inkscape-font-specification:'Futura Bk BT';stroke-width:0.326458;fill:#cecece;fill-opacity:1;stroke:none;stroke-opacity:1"
         id="path1996" />
      <path
         d="M 291.2143,129.56128 V 98.445702 h 7.31131 q 3.12431,0 4.56957,0.361315 1.46652,0.340061 2.57171,1.190214 1.3815,1.083939 2.14664,2.911769 0.76514,1.80658 0.76514,4.01697 0,3.82569 -2.14664,5.82355 -2.12538,1.9766 -6.24862,1.9766 h -0.65887 l 11.88088,14.83516 h -4.69709 L 295.3588,114.72612 h -0.53135 v 14.83516 z m 3.61315,-27.99127 v 10.41437 h 2.82676 q 4.33577,0 5.80229,-1.1052 1.46651,-1.12645 1.46651,-3.9107 0,-2.99679 -1.50902,-4.187 -1.50902,-1.21147 -5.75978,-1.21147 z"
         style="font-style:normal;font-variant:normal;font-weight:normal;font-stretch:normal;font-size:43.5278px;font-family:'Futura Bk BT';-inkscape-font-specification:'Futura Bk BT';stroke-width:0.326458;fill:#cecece;fill-opacity:1;stroke:none;stroke-opacity:1"
         id="path1998" />
    </g>
    <g
       style="stroke:#cecece;stroke-opacity:1"
       transform="matrix(3.2459564,0,0,3.2459564,-420.3358,13.575064)"
       id="g22118">
      <path
         id="path22056"
         style="fill:none;stroke:#cecece;stroke-width:1.365;stroke-linecap:round;stroke-linejoin:miter;stroke-miterlimit:4;stroke-dasharray:none;stroke-opacity:1"
         d="m 138.71725,36.663692 c 0.0289,7.276924 6.85037,13.137096 13.96825,12.856975 8.04002,0.07742 15.87451,-3.788216 23.94692,-1.856599 7.13303,1.396893 14.61757,3.86558 21.79567,1.244598 7.26115,-2.383236 14.45268,-6.389119 22.37249,-5.132003 6.84395,0.687603 15.05968,2.284599 20.54431,-3.052148 5.09463,-4.783686 3.1695,-14.230903 -3.39195,-16.637137 -1.7279,-0.710641 -3.65122,-0.942682 -5.49759,-0.652854" />
      <path
         id="path22080"
         style="fill:none;stroke:#cecece;stroke-width:1.38821;stroke-linecap:round;stroke-linejoin:miter;stroke-miterlimit:4;stroke-dasharray:none;stroke-opacity:1"
         d="m 137.97295,27.58069 c 1.47384,-8.863953 10.65138,-15.282944 19.4846,-13.834062 7.96999,0.945433 16.11307,5.623269 24.11405,2.253962 8.04258,-3.357526 13.53804,-11.8731704 22.71934,-12.6411954 9.14512,-1.2702027 18.46235,4.872124 21.01098,13.7230814 0.33699,1.083545 0.57887,2.196963 0.7162,3.323479" />
    </g>
  </g>
</svg>
